<svg width="512" height="512" viewBox="0 0 512 512" fill="none" xmlns="http://www.w3.org/2000/svg">
<g clip-path="url(#clip0_1_2)">
<rect width="512" height="512" rx="40" fill="#00C853"/>
<path d="M145.404 406C130.389 406 119.924 403.27 119.924 391.44C119.924 375.97 143.584 375.515 143.584 356.405V146.195C143.584 127.085 119.924 126.175 119.924 111.16C119.924 99.33 129.934 96.6 145.404 96.6H249.599C337.414 96.6 386.099 133 386.099 185.78C386.099 236.74 352.884 263.585 326.039 273.595L367.899 352.31C373.359 362.775 381.549 367.325 391.559 373.24C397.929 377.335 403.389 380.52 403.389 389.165C403.389 401.905 391.104 406 380.639 406H311.479C296.919 406 283.269 404.635 283.269 389.165C283.269 374.605 305.564 373.24 299.194 358.68L260.974 285.425L211.379 285.88V356.405C211.379 375.515 235.039 375.97 235.039 391.44C235.039 403.27 224.574 406 209.559 406H145.404ZM242.319 253.575C285.999 254.03 311.479 232.645 311.934 196.245C311.934 162.575 291.459 128.45 236.859 128.45H229.124C215.019 128.45 211.379 137.55 211.379 150.745V253.575H242.319Z" fill="white"/>
</g>
<defs>
<clipPath id="clip0_1_2">
<rect width="512" height="512" rx="40" fill="white"/>
</clipPath>
</defs>
</svg>
